<?xml version="1.0" encoding="UTF-8" standalone="no"?>
<!-- Created with Inkscape (http://www.inkscape.org/) -->

<svg
   width="129.767mm"
   height="60.353851mm"
   viewBox="0 0 129.767 60.353851"
   version="1.1"
   id="svg1"
   xml:space="preserve"
   xmlns:inkscape="http://www.inkscape.org/namespaces/inkscape"
   xmlns:sodipodi="http://sodipodi.sourceforge.net/DTD/sodipodi-0.dtd"
   xmlns="http://www.w3.org/2000/svg"
   xmlns:svg="http://www.w3.org/2000/svg"><sodipodi:namedview
     id="namedview1"
     pagecolor="#ffffff"
     bordercolor="#666666"
     borderopacity="1.0"
     inkscape:showpageshadow="2"
     inkscape:pageopacity="0.0"
     inkscape:pagecheckerboard="0"
     inkscape:deskcolor="#d1d1d1"
     inkscape:document-units="mm" /><defs
     id="defs1" /><g
     inkscape:label="Camada 1"
     inkscape:groupmode="layer"
     id="layer1"
     transform="translate(-25.023471,-32.649581)"><g
       id="g16"
       inkscape:export-filename="logo.svg"
       inkscape:export-xdpi="95"
       inkscape:export-ydpi="95"><g
         id="g12"
         style="fill:#000000"><path
           style="fill:#000000;stroke-width:0.655918;stroke-linecap:round;stroke-miterlimit:0.1"
           d="m 32.263865,59.029216 c -1.085979,-0.2512 -1.354386,-0.33889 -2.097545,-0.68532 -0.781328,-0.36423 -1.760188,-1.03859 -2.458699,-1.69385 -0.524356,-0.4919 -1.432766,-1.74607 -1.763209,-2.43432 -0.726181,-1.51251 -0.968889,-2.66108 -0.913321,-4.32218 0.05984,-1.78883 0.390118,-2.99457 1.185818,-4.32906 0.420534,-0.70529 1.204724,-1.72938 1.576355,-2.05859 0.502685,-0.4453 0.651577,-0.56509 0.702411,-0.56509 0.02921,0 0.15109,-0.0898 0.270851,-0.19948 0.394229,-0.36116 1.742025,-1.11235 1.995795,-1.11235 0.04524,0 0.194982,-0.0588 0.332758,-0.13065 0.137774,-0.0719 0.321958,-0.13088 0.409297,-0.13118 0.08734,-2.7e-4 0.23512,-0.0414 0.328401,-0.0913 0.09328,-0.0499 0.62547,-0.13243 1.182643,-0.18336 1.070078,-0.0978 2.582283,-0.005 3.183956,0.19597 0.168354,0.0562 0.483195,0.15966 0.699648,0.23001 0.379929,0.12349 1.613953,0.69532 1.792843,0.8308 0.0481,0.0364 0.326208,0.24137 0.618011,0.45543 1.045938,0.76727 2.073744,1.98112 2.740782,3.2369 0.672386,1.26584 1.124172,3.35736 1.006808,4.66093 -0.0314,0.34873 -0.0623,0.64333 -0.06867,0.65467 -0.0064,0.0114 -3.31742,0.0409 -7.35788,0.0656 l -7.346288,0.045 0.02851,0.34982 c 0.02854,0.35013 0.416203,1.25572 0.748761,1.74912 0.09726,0.1443 0.515622,0.59736 0.929687,1.0068 0.557625,0.55139 0.921502,0.82756 1.403244,1.06502 1.071179,0.52799 1.367266,0.59558 2.609049,0.59558 0.950682,0 1.225425,-0.0329 1.801947,-0.21589 1.554324,-0.49332 2.78919,-1.55378 3.44261,-2.9564 l 0.275947,-0.59234 1.550377,0.0239 c 1.725326,0.0266 1.736203,0.0311 1.48137,0.61075 -0.06956,0.15823 -0.21268,0.49825 -0.318043,0.7556 -0.359899,0.87904 -1.164399,2.05037 -1.884555,2.74384 -0.288639,0.27795 -1.327436,1.11731 -1.382781,1.11731 -0.02831,0 -0.220705,0.11134 -0.427543,0.24741 -0.206841,0.13607 -0.592527,0.33496 -0.857081,0.44196 -0.264551,0.10701 -0.559715,0.22845 -0.655918,0.26987 -0.182636,0.0786 -0.715595,0.22283 -1.311836,0.35493 -0.431337,0.0956 -3.035189,0.0912 -3.454506,-0.006 z m 7.395361,-10.59857 c 0.106222,-0.10628 -0.215162,-0.9819 -0.592386,-1.61396 -0.752327,-1.26059 -1.94963,-2.18955 -3.478641,-2.69903 -0.737812,-0.24584 -2.475907,-0.22666 -3.237688,0.0357 -1.199523,0.41318 -2.226426,1.11344 -2.930916,1.99864 -0.395859,0.4974 -1.091243,1.80389 -1.091243,2.05023 0,0.33859 0.03044,0.34026 5.740477,0.31573 3.039753,-0.0131 5.555432,-0.0524 5.590397,-0.0873 z"
           id="path2" /><path
           style="fill:#000000;stroke-width:0.655918;stroke-linecap:round;stroke-miterlimit:0.1"
           d="m 50.454678,59.121466 c -1.879023,-0.34629 -3.010807,-0.81288 -3.905038,-1.6099 -0.532865,-0.47493 -1.106175,-1.2055 -1.209421,-1.54117 -0.03676,-0.11952 -0.09538,-0.25666 -0.130249,-0.30476 -0.287959,-0.39718 -0.552625,-2.19253 -0.342805,-2.3254 0.1332,-0.0844 2.719107,-0.10772 3.018849,-0.0273 0.143166,0.0384 0.207917,0.15813 0.280199,0.51804 0.260193,1.2956 1.05402,2.16668 2.507104,2.75109 0.989674,0.39802 4.201782,0.37288 5.378534,-0.0421 1.319385,-0.46528 1.819302,-0.94006 2.100001,-1.99441 0.144095,-0.54124 -0.0078,-1.2451 -0.349478,-1.61916 -0.292039,-0.31974 -0.867354,-0.68878 -1.196657,-0.7676 -0.136274,-0.0326 -0.287126,-0.0832 -0.335227,-0.11248 -0.1676,-0.1019 -1.764654,-0.4417 -3.148409,-0.66988 -0.432906,-0.0714 -1.003557,-0.16497 -1.268111,-0.20796 -0.714187,-0.11607 -1.856785,-0.40615 -2.842313,-0.7216 -2.516426,-0.80547 -3.57088,-2.04105 -3.569602,-4.18275 2.64e-4,-0.64232 0.150106,-1.53183 0.287049,-1.70539 0.03795,-0.0481 0.09876,-0.18585 0.135115,-0.3061 0.133569,-0.44175 1.003384,-1.40164 1.645605,-1.81601 1.70648,-1.10106 3.905435,-1.53322 6.792909,-1.335 1.112306,0.0764 1.557478,0.15832 2.492492,0.45893 0.486733,0.15649 1.605439,0.65865 1.705388,0.76552 0.02405,0.0257 0.213016,0.16163 0.419925,0.30203 1.090155,0.73975 1.937142,2.22211 1.94011,3.39551 l 0.0013,0.50287 h -1.608577 c -1.736068,0 -1.714746,0.006 -1.714746,-0.4786 0,-0.52878 -0.532778,-1.32121 -1.158599,-1.72324 -0.825252,-0.53015 -1.359723,-0.66468 -2.951824,-0.743 -2.35163,-0.11568 -4.022434,0.48245 -4.514983,1.61631 -0.206282,0.47487 -0.187399,1.2077 0.04268,1.65653 0.262784,0.51262 0.969939,0.93445 1.936081,1.15492 0.168354,0.0384 0.483195,0.11239 0.699648,0.16438 0.216453,0.052 0.708393,0.15181 1.093197,0.22183 0.384805,0.07 1.039352,0.18973 1.454547,0.26602 0.415195,0.0763 0.844643,0.13871 0.954328,0.13871 0.109683,0 0.399662,0.0556 0.644393,0.12351 0.459941,0.12768 1.093145,0.28479 1.625619,0.40336 1.085365,0.24169 2.497465,0.94682 3.109174,1.55257 0.869773,0.86129 1.196898,1.99499 1.021413,3.53984 -0.05212,0.45883 -0.134543,0.9072 -0.18316,0.99639 -0.04862,0.0892 -0.171794,0.33925 -0.273725,0.5557 -0.356796,0.75767 -1.429051,1.74993 -2.384811,2.20689 -1.833539,0.87664 -2.680909,1.04259 -5.48677,1.07455 -1.487562,0.0169 -2.053836,-0.0106 -2.71113,-0.1317 z"
           id="path3" /><path
           style="fill:#000000;stroke-width:0.655918;stroke-linecap:round;stroke-miterlimit:0.1"
           d="m 103.67155,59.067006 c -0.97551,-0.13867 -2.60679,-0.73751 -3.49654,-1.28358 -0.531507,-0.32621 -1.222945,-0.91437 -1.842578,-1.56737 -1.628177,-1.71584 -2.479194,-4.00887 -2.378948,-6.40996 0.05325,-1.27559 0.251063,-2.311 0.584774,-3.06096 0.774927,-1.74152 1.794915,-3.08612 2.935412,-3.86961 0.192402,-0.13217 0.370398,-0.26764 0.395544,-0.30103 0.0893,-0.11858 1.536716,-0.82774 2.053216,-1.00598 1.09797,-0.37888 1.52769,-0.46337 2.62735,-0.51658 2.06365,-0.0998 3.72473,0.25753 5.04235,1.08481 0.41478,0.26043 0.9724,0.66683 1.19326,0.86966 0.11785,0.10822 0.24609,0.19677 0.28499,0.19677 0.0936,0 0.16221,-0.42957 0.18844,-1.18065 l 0.0214,-0.61219 1.22439,-0.026 c 0.67341,-0.0143 1.35247,-0.003 1.50903,0.0259 l 0.28466,0.0519 -0.0223,8.63222 -0.0223,8.63222 -1.50861,0.0239 -1.50862,0.0239 -10e-4,-0.7673 c -7.9e-4,-0.42202 -0.0351,-0.82056 -0.0763,-0.88566 -0.0933,-0.14727 -0.26799,-0.062 -0.96231,0.4696 -0.50965,0.39024 -1.26117,0.81466 -1.76974,0.99944 -1.10723,0.40232 -1.43093,0.45526 -2.96237,0.48453 -0.84176,0.0161 -1.64854,0.0125 -1.79284,-0.008 z m 3.17815,-3.01617 c 2.08351,-0.58463 3.61334,-2.16577 4.25508,-4.39782 0.19761,-0.68729 0.20305,-2.38607 0.009,-2.94012 -0.0756,-0.21645 -0.1381,-0.45258 -0.13879,-0.52473 -0.003,-0.26303 -0.8132,-1.73675 -1.1962,-2.17459 -0.72763,-0.83178 -1.79164,-1.52689 -2.91552,-1.9047 -0.74439,-0.25024 -2.80736,-0.22242 -3.58569,0.0483 -1.10965,0.38603 -2.18418,1.0874 -2.72328,1.77756 -0.16029,0.20519 -0.34164,0.42554 -0.40302,0.48966 -0.192636,0.20125 -0.839699,1.61081 -0.908771,1.97967 -0.03631,0.19388 -0.111858,0.56896 -0.167894,0.83352 -0.06125,0.28916 -0.08063,0.77748 -0.04859,1.22438 0.1372,1.91385 0.882518,3.3732 2.322615,4.5477 0.39008,0.31814 1.61264,0.95662 1.84149,0.96172 0.0721,0.002 0.2886,0.0596 0.481,0.12896 0.56746,0.20443 2.37336,0.17627 3.17815,-0.0496 z"
           id="path4" /><path
           style="fill:#000000;stroke-width:0.655918;stroke-linecap:round;stroke-miterlimit:0.1"
           d="m 117.05237,64.347686 c -0.0264,-0.10936 -0.0372,-5.315 -0.0241,-11.56809 l 0.024,-11.36926 h 1.53048 1.53047 l 0.0437,0.86757 c 0.0241,0.47717 0.0834,0.88066 0.13184,0.89665 0.0485,0.016 0.18621,-0.0596 0.3061,-0.16793 0.21655,-0.19571 0.75465,-0.58454 1.20641,-0.87174 0.43333,-0.27549 0.96737,-0.50577 1.82971,-0.78896 0.84022,-0.27593 0.88299,-0.28073 2.47294,-0.27726 1.38397,0.003 1.7191,0.0311 2.31758,0.19446 1.44531,0.39442 2.47038,0.89237 3.53809,1.7187 0.54926,0.42509 1.52088,1.50086 1.96596,2.17671 0.26767,0.40645 0.48667,0.76461 0.48667,0.79591 0,0.051 0.22305,0.58419 0.44049,1.05306 0.0759,0.16357 0.12869,0.36086 0.363,1.35557 0.11832,0.50229 0.11762,2.7933 -0.001,3.36705 -0.16244,0.78555 -0.28168,1.21967 -0.41198,1.49996 -0.0705,0.15157 -0.12811,0.31329 -0.12811,0.35938 0,0.12051 -0.4937,1.03263 -0.86341,1.59516 -0.47116,0.71689 -1.61419,1.86911 -2.31902,2.33765 -0.5481,0.36436 -1.7186,0.98567 -1.85692,0.98567 -0.0277,0 -0.1744,0.0534 -0.32597,0.1187 -0.75376,0.32465 -1.65761,0.44977 -3.24908,0.44977 -1.28348,0 -1.67112,-0.0299 -2.09894,-0.16163 -1.47086,-0.45304 -2.04017,-0.73031 -3.03909,-1.48014 -0.37278,-0.27982 -0.68656,-0.49716 -0.6973,-0.48297 -0.0107,0.0142 -0.0402,1.71807 -0.0656,3.7864 l -0.0461,3.7606 -1.50643,0.0239 c -1.50341,0.0239 -1.50653,0.0235 -1.55445,-0.17491 z m 10.58208,-8.24729 c 0.1924,-0.0693 0.39891,-0.12663 0.45891,-0.12735 0.16405,-0.002 1.22976,-0.52069 1.6436,-0.79999 0.62513,-0.42189 1.45834,-1.38844 1.80272,-2.09121 0.45771,-0.93405 0.49105,-1.03682 0.64374,-1.98414 0.31865,-1.97694 -0.36412,-4.14039 -1.72249,-5.45797 -0.38174,-0.37027 -0.93264,-0.8081 -1.12109,-0.89099 -0.0722,-0.0317 -0.19022,-0.0915 -0.26237,-0.13291 -0.21847,-0.12524 -0.71635,-0.32908 -1.22438,-0.50128 -0.69086,-0.23416 -2.82396,-0.23888 -3.45451,-0.008 -1.01059,0.3706 -1.99788,0.97807 -2.59946,1.5994 -2.0683,2.13619 -2.37765,5.47932 -0.7314,7.9041 0.30313,0.44648 1.18871,1.35469 1.58175,1.62217 0.40325,0.27443 1.16841,0.63362 1.74911,0.82109 0.66993,0.21628 2.68446,0.24536 3.23587,0.0467 z"
           id="path5" /><path
           style="fill:#000000;stroke-width:0.655918;stroke-linecap:round;stroke-miterlimit:0.1"
           d="m 144.29478,59.061756 c -0.43533,-0.0688 -1.36176,-0.31469 -1.63115,-0.43289 -0.15157,-0.0665 -0.31825,-0.12092 -0.37041,-0.12092 -0.21129,0 -1.23868,-0.59702 -2.00291,-1.16389 -1.88548,-1.39858 -3.09854,-3.38826 -3.50267,-5.74512 -0.22176,-1.29331 -0.21069,-1.8667 0.0652,-3.37898 0.27465,-1.50537 1.3145,-3.43246 2.48033,-4.59664 0.2959,-0.29548 1.28079,-1.07923 1.59482,-1.26912 0.53184,-0.32159 1.98234,-0.98699 2.15562,-0.98886 0.0649,-8e-4 0.29506,-0.0667 0.51152,-0.14663 0.57177,-0.21119 3.53864,-0.21119 4.11042,0 0.21645,0.0799 0.45742,0.14593 0.53548,0.14663 0.12941,10e-4 0.4549,0.12646 1.30109,0.50086 0.32617,0.14432 1.38818,0.82397 1.74536,1.11698 0.27273,0.22373 1.11647,1.06982 1.40305,1.40695 0.45642,0.53694 0.98387,1.45625 1.42645,2.4862 0.19735,0.45925 0.40181,1.19941 0.50734,1.83657 0.0919,0.5548 0.20866,2.60425 0.15061,2.64332 -0.0161,0.0108 -3.35469,0.0403 -7.4192,0.0656 l -7.39002,0.0459 0.0306,0.34982 c 0.0168,0.1924 0.0797,0.44821 0.13977,0.56847 0.06,0.12025 0.18256,0.37606 0.27228,0.56846 0.45066,0.96647 1.69386,2.18318 2.74948,2.6909 1.04138,0.50086 1.14398,0.52583 2.33365,0.56787 1.30694,0.0462 1.70939,-0.0353 2.82167,-0.57116 0.74823,-0.36049 0.89901,-0.47255 1.63724,-1.21687 0.35745,-0.36041 0.65419,-0.77406 0.87947,-1.22598 l 0.33999,-0.68204 1.5494,-0.0239 c 1.22174,-0.0188 1.55879,5.3e-4 1.59382,0.0918 0.0526,0.1372 -0.31627,1.15043 -0.64395,1.76861 -0.65701,1.23947 -1.82133,2.51239 -3.03382,3.31678 -0.51809,0.3437 -1.43272,0.83737 -1.55143,0.83737 -0.0461,0 -0.20781,0.055 -0.35938,0.12233 -0.33715,0.14966 -0.91727,0.30577 -1.49997,0.40364 -0.43695,0.0734 -2.51661,0.0931 -2.92977,0.0278 z m 7.06844,-10.76656 c 0.0155,-0.10949 -0.1299,-0.52581 -0.3232,-0.92516 -0.82047,-1.6951 -1.81188,-2.57484 -3.64056,-3.23051 -0.76247,-0.27338 -2.64619,-0.27345 -3.41468,-1.2e-4 -1.73657,0.61766 -3.19737,1.97748 -3.78568,3.52402 -0.19935,0.52405 -0.22132,0.71334 -0.0923,0.79544 0.0677,0.0431 2.57378,0.0679 5.67474,0.0563 l 5.55345,-0.0209 z"
           id="path6" /><path
           style="fill:#000000;stroke-width:0.655918;stroke-linecap:round;stroke-miterlimit:0.1"
           d="m 141.30371,92.831366 c -0.0257,-0.0257 -0.2979,-0.0855 -0.6049,-0.13284 -0.307,-0.0474 -0.63689,-0.12056 -0.73309,-0.16267 -0.0962,-0.0421 -0.37169,-0.14506 -0.61219,-0.2288 -0.61027,-0.21248 -1.7424,-0.91177 -2.33527,-1.44243 -0.88786,-0.7947 -1.68974,-2.03845 -2.06626,-3.20485 -0.54184,-1.67856 -0.62325,-2.66841 -0.62453,-7.59397 -0.001,-5.07874 0.0928,-6.03181 0.74701,-7.56493 0.13342,-0.31265 0.29481,-0.63059 0.35865,-0.70653 0.0638,-0.0759 0.11607,-0.16325 0.11607,-0.19403 0,-0.0308 0.16608,-0.29797 0.36907,-0.59377 0.97911,-1.42674 2.4894,-2.45367 4.441,-3.01968 0.81711,-0.23698 3.37287,-0.2383 4.19788,-0.002 2.10391,0.60218 3.73909,1.82484 4.8086,3.59546 0.24131,0.3995 0.43875,0.76691 0.43875,0.81645 0,0.0495 0.056,0.20151 0.1244,0.33768 0.0684,0.13618 0.18456,0.46405 0.25809,0.7286 0.33488,1.20483 0.36089,1.68371 0.36089,6.64664 0,4.94901 -0.0504,5.90461 -0.3574,6.78076 -0.068,0.19401 -0.12361,0.41896 -0.12361,0.4999 0,0.0809 -0.0657,0.29607 -0.14593,0.47808 -0.0803,0.18201 -0.22388,0.50803 -0.31918,0.72448 -0.0953,0.21645 -0.26576,0.51883 -0.37881,0.67195 -0.11305,0.15312 -0.20555,0.31576 -0.20555,0.36144 0,0.0457 -0.34436,0.4345 -0.76524,0.86406 -1.57661,1.60915 -3.51118,2.38783 -5.93242,2.38787 -0.53312,1e-5 -0.99033,-0.021 -1.01603,-0.0467 z m 2.20397,-3.20929 c 0.69425,-0.13717 1.68138,-0.63833 2.14518,-1.08911 0.35807,-0.34801 1.00323,-1.2404 1.00323,-1.38768 0,-0.0311 0.0543,-0.18059 0.12061,-0.33216 0.0663,-0.15157 0.19424,-0.6101 0.28423,-1.01896 0.14866,-0.6754 0.16362,-1.17521 0.16362,-5.46599 0,-4.28543 -0.0149,-4.78333 -0.16056,-5.37853 -0.46657,-1.90603 -1.18298,-2.87459 -2.66444,-3.60222 l -0.76069,-0.37361 -1.09319,-0.002 c -0.80573,-0.001 -1.19669,0.0365 -1.48675,0.14349 -1.57182,0.57991 -2.56323,1.61532 -3.00121,3.1344 -0.38836,1.34695 -0.40961,1.66213 -0.40859,6.0588 7.9e-4,3.77909 0.0184,4.31267 0.16892,5.13554 0.30411,1.66288 0.49985,2.08595 1.35927,2.93787 0.65104,0.64537 1.40758,1.08217 2.10025,1.21261 1.16656,0.21969 1.25097,0.22072 2.23012,0.0273 z"
           id="path7" /><path
           style="fill:#000000;stroke-width:0.655918;stroke-linecap:round;stroke-miterlimit:0.1"
           d="m 123.43657,92.968026 c -3.14966,-0.34536 -5.76834,-2.4952 -6.76757,-5.55593 -0.41114,-1.25935 -0.47758,-1.70542 -0.47543,-3.19213 0.001,-0.80427 0.0465,-1.60755 0.10244,-1.81471 0.0552,-0.20443 0.14042,-0.53895 0.18938,-0.74338 0.049,-0.20442 0.12552,-0.45039 0.17014,-0.5466 0.0446,-0.0962 0.16482,-0.37168 0.26712,-0.61219 0.21329,-0.5014 0.40497,-0.90378 0.52078,-1.09319 0.0441,-0.0722 0.24963,-0.41837 0.45672,-0.76938 0.20709,-0.351 0.41619,-0.7052 0.46467,-0.7871 0.0485,-0.0819 0.95004,-1.44763 2.00345,-3.03496 1.86424,-2.80909 3.25738,-4.92553 3.88581,-5.90326 0.60605,-0.9429 0.42313,-0.87456 2.34098,-0.87456 1.04856,0 1.70576,0.0336 1.73999,0.089 0.0303,0.049 -0.0658,0.24156 -0.21347,0.42801 -0.14767,0.18644 -0.26849,0.36444 -0.26849,0.39554 0,0.078 -0.37836,0.61117 -0.45915,0.64708 -0.0361,0.016 -0.0656,0.0668 -0.0656,0.11286 0,0.0981 -0.36335,0.63166 -0.45914,0.67424 -0.0361,0.016 -0.0656,0.0668 -0.0656,0.11286 0,0.0761 -0.32562,0.58365 -0.4419,0.68882 -0.0266,0.0241 -0.14258,0.20115 -0.25775,0.39355 -0.11517,0.1924 -0.23324,0.3695 -0.26237,0.39355 -0.0291,0.024 -0.14802,0.20115 -0.26421,0.39355 -0.11618,0.1924 -0.24334,0.38918 -0.28257,0.43728 -0.35228,0.43196 -1.68088,2.56558 -1.66098,2.6674 0.0209,0.10686 0.19956,0.13119 0.96365,0.13119 0.97548,0 1.88202,0.12815 2.55595,0.36131 0.51594,0.1785 2.01148,0.91758 2.01148,0.99405 0,0.0328 0.0885,0.10005 0.19678,0.14951 0.61656,0.28178 2.00145,1.90545 2.48347,2.91165 1.05332,2.19879 1.26233,4.66799 0.59221,6.99646 -0.40723,1.41503 -1.32849,2.89052 -2.44986,3.92372 -0.55429,0.51069 -1.64378,1.21471 -2.17816,1.4075 -0.1443,0.0521 -0.34108,0.13249 -0.43728,0.17874 -0.0962,0.0462 -0.33233,0.12194 -0.52474,0.1682 -0.1924,0.0462 -0.50724,0.12216 -0.69964,0.16866 -0.51119,0.12357 -2.00469,0.18012 -2.71113,0.10266 z m 2.40503,-3.0671 c 1.64944,-0.58232 2.87437,-1.73503 3.43652,-3.23391 0.4366,-1.16411 0.54339,-2.65062 0.27437,-3.81906 -0.42675,-1.8535 -1.83398,-3.46817 -3.53595,-4.05717 -0.46486,-0.16088 -0.68721,-0.18053 -1.73157,-0.15306 -0.66226,0.0174 -1.27647,0.0755 -1.37314,0.12979 -0.0962,0.0541 -0.40088,0.20209 -0.67708,0.32895 -0.84637,0.38878 -1.98082,1.62254 -2.41588,2.62736 -0.8543,1.97307 -0.75429,3.85523 0.31155,5.86319 0.25977,0.48937 1.52718,1.65787 2.08405,1.92139 0.9706,0.4593 1.48606,0.57194 2.44648,0.53459 0.48101,-0.0187 1.0123,-0.0826 1.18065,-0.14207 z"
           id="path8" /><path
           style="fill:#000000;stroke-width:0.655918;stroke-linecap:round;stroke-miterlimit:0.1"
           d="m 151.64107,70.841076 c -0.1971,-0.1246 -0.1971,-5.6512 0,-5.77579 0.0721,-0.0456 0.74644,-0.0835 1.49841,-0.0843 1.34447,-0.001 1.36811,0.002 1.41997,0.19544 0.0688,0.25664 0.0688,5.29681 0,5.55344 -0.0519,0.1935 -0.0755,0.19676 -1.41997,0.19544 -0.75197,-7.9e-4 -1.42626,-0.0386 -1.49841,-0.0843 z"
           id="path9" /></g><g
         id="g11"
         style="fill:#ff0000;fill-opacity:1"
         transform="translate(0,-182.60777)"><path
           style="fill:#ff0000;fill-opacity:1;stroke-width:0.655918;stroke-linecap:round;stroke-miterlimit:0.1"
           d="m 77.21616,247.54493 c -1.427644,-0.15012 -2.968257,-0.52592 -3.992456,-0.97387 -0.151572,-0.0663 -0.302281,-0.12053 -0.334912,-0.12053 -0.121897,0 -1.648913,-0.79276 -2.299912,-1.19402 -1.991559,-1.22753 -3.729233,-2.91296 -4.990476,-4.84044 -0.453519,-0.69308 -1.406903,-2.47434 -1.525756,-2.85066 -0.02893,-0.0916 -0.136539,-0.40269 -0.239123,-0.69129 -1.058524,-2.97797 -1.208884,-6.67518 -0.387675,-9.53269 0.233748,-0.81337 0.681968,-2.1208 0.817387,-2.38428 0.04295,-0.0836 0.226648,-0.4471 0.408216,-0.80786 0.578093,-1.1486 0.788635,-1.48062 1.669782,-2.63323 0.584473,-0.76453 2.385642,-2.61412 2.545689,-2.61412 0.03655,0 0.176887,-0.1024 0.311867,-0.22756 0.779912,-0.72318 3.157505,-2.01711 4.606594,-2.50699 3.615494,-1.22228 6.867898,-1.21372 10.669611,0.0281 1.787716,0.58394 4.125042,1.957 5.343647,3.13912 0.07702,0.0747 0.293468,0.27843 0.481007,0.45272 0.827228,0.76875 1.679398,1.79069 2.351937,2.82048 0.482854,0.73935 1.272855,2.20405 1.379011,2.55676 0.02738,0.091 0.12881,0.37309 0.225396,0.62692 l 0.175609,0.4615 -0.206828,0.13552 c -0.113757,0.0745 -0.415755,0.18827 -0.671107,0.25273 -0.25535,0.0645 -0.680728,0.18198 -0.94528,0.26114 -0.521488,0.15604 -1.129022,0.32409 -1.749118,0.48383 -0.216453,0.0558 -0.47226,0.13401 -0.568462,0.1739 -0.0962,0.0399 -0.35201,0.11815 -0.568463,0.1739 -0.620096,0.15974 -1.227632,0.32779 -1.749118,0.48383 -0.264552,0.0792 -0.67778,0.19722 -0.918284,0.26237 -0.240504,0.0651 -0.653733,0.1832 -0.918287,0.26236 -0.264554,0.0792 -0.677783,0.19662 -0.918286,0.26102 -0.240504,0.0644 -0.712767,0.19652 -1.04947,0.2936 l -0.612191,0.17651 -0.193632,-0.23529 c -0.106495,-0.1294 -0.195046,-0.28526 -0.196773,-0.34635 -0.0067,-0.23527 -1.271765,-1.37843 -1.83972,-1.66239 -0.997876,-0.49891 -2.076328,-0.71246 -2.798585,-0.55416 -1.351478,0.2962 -2.015524,0.63215 -2.816574,1.42496 -1.87002,1.85079 -1.87525,4.8844 -0.01167,6.7658 0.358637,0.36207 1.260432,1.00214 1.411909,1.00214 0.04647,0 0.191654,0.0556 0.322617,0.12354 0.130963,0.0679 0.57259,0.17329 0.981392,0.23411 1.917825,0.28533 3.590838,-0.49575 4.714198,-2.20089 0.231066,-0.35074 0.459986,-0.60464 0.54406,-0.60343 0.157679,0.002 0.490937,0.0857 1.23834,0.31003 2.080646,0.62449 2.193772,0.65769 2.667405,0.78271 0.240503,0.0635 0.555344,0.15546 0.699645,0.20439 0.144302,0.0489 0.498499,0.15657 0.787104,0.2392 0.288602,0.0826 0.682154,0.19815 0.874557,0.25672 0.192402,0.0586 0.585954,0.17574 0.874559,0.26038 0.288604,0.0846 0.682156,0.20272 0.874559,0.26237 0.192402,0.0597 0.585954,0.17534 0.874556,0.25706 0.288605,0.0817 0.701834,0.20156 0.918287,0.26631 0.216453,0.0647 0.506851,0.14268 0.645326,0.1732 0.239583,0.0528 0.249333,0.0733 0.201361,0.42329 -0.05786,0.42215 -0.647938,1.81045 -1.047091,2.46354 -1.615784,2.64371 -3.183424,4.32105 -5.396769,5.77441 -0.455698,0.29923 -0.534623,0.34388 -1.355564,0.76683 -0.533175,0.27469 -0.814877,0.40334 -1.661663,0.75882 -1.034378,0.43425 -2.724081,0.82232 -4.191203,0.9626 -1.165516,0.11145 -2.137185,0.1006 -3.461182,-0.0386 z m 4.650341,-1.48894 c 1.122455,-0.2451 2.367698,-0.62974 3.086862,-0.9535 0.241956,-0.10892 0.538305,-0.2424 0.658558,-0.29661 0.120251,-0.0542 0.415415,-0.21744 0.655918,-0.36273 0.240504,-0.14529 0.496311,-0.29176 0.568463,-0.32549 0.07215,-0.0337 0.327959,-0.19793 0.568462,-0.3649 1.71345,-1.18955 2.983709,-2.48792 4.098417,-4.18911 0.478658,-0.7305 1.105207,-1.85332 1.105207,-1.98061 0,-0.0217 -0.140988,-0.086 -0.313309,-0.14284 -0.353491,-0.11667 -0.381682,-0.0925 -0.805881,0.69182 -0.12011,0.22206 -0.261861,0.48247 -0.315002,0.57867 -0.165899,0.30033 -0.733547,1.1286 -0.899681,1.31274 -0.08724,0.0967 -0.312288,0.36656 -0.500105,0.59969 -1.169776,1.45199 -3.177945,2.95515 -4.949592,3.70487 -3.20606,1.35674 -6.385121,1.577 -9.620142,0.66654 -0.264554,-0.0745 -0.610245,-0.19055 -0.768204,-0.25798 -0.157959,-0.0674 -0.331415,-0.12259 -0.385453,-0.12259 -0.198837,0 -2.242529,-1.0664 -2.433725,-1.26992 l -0.19757,-0.2103 0.378101,-0.57095 c 0.207957,-0.31402 0.440975,-0.5909 0.517818,-0.61529 0.07685,-0.0244 0.647483,0.21139 1.268085,0.52395 0.620601,0.31257 1.19752,0.5683 1.282041,0.5683 0.08452,0 0.174561,0.0338 0.200088,0.0751 0.02553,0.0413 0.431239,0.16269 0.901584,0.26974 0.470342,0.10705 1.010928,0.2347 1.201303,0.28368 0.190373,0.049 0.879087,0.10881 1.530477,0.13297 0.955083,0.0354 1.400625,0.008 2.301643,-0.14304 0.614513,-0.10283 1.204841,-0.22185 1.311835,-0.26449 0.106998,-0.0426 0.410994,-0.14349 0.675548,-0.22412 1.446424,-0.44082 3.241976,-1.49309 4.391869,-2.57382 0.130744,-0.12288 0.288163,-0.26671 0.349821,-0.31962 0.100537,-0.0863 0.262187,-0.26568 0.803445,-0.89175 0.160914,-0.18613 0.161197,-0.19868 0.0083,-0.36762 -0.256982,-0.28396 -0.512099,-0.21798 -0.876449,0.22666 -0.696981,0.85057 -2.027822,1.86404 -3.303074,2.51537 -1.094557,0.55904 -1.471604,0.69113 -3.166769,1.10942 -0.240503,0.0593 -1.026019,0.12732 -1.745593,0.15106 -1.471385,0.0485 -2.355072,-0.0722 -3.805447,-0.51976 -3.101824,-0.95724 -5.633034,-3.17498 -7.044415,-6.17201 -0.211455,-0.44902 -0.390874,-0.72106 -0.475075,-0.72032 -0.281532,0.002 -0.528852,0.11126 -0.528852,0.2326 0,0.20232 0.796592,1.77063 1.213893,2.38988 0.618593,0.91796 1.291553,1.70269 2.087581,2.43432 0.728527,0.66958 0.742389,0.68983 0.623967,0.9114 -0.262951,0.49198 -0.652534,1.01886 -0.777031,1.05086 -0.190961,0.0491 -0.638734,-0.2999 -1.53719,-1.19802 -1.27591,-1.27544 -2.113102,-2.44132 -2.799217,-3.89821 -0.12459,-0.26455 -0.282133,-0.59242 -0.350094,-0.72859 -0.06796,-0.13618 -0.123569,-0.3021 -0.123569,-0.36873 0,-0.0666 -0.05389,-0.25036 -0.119761,-0.40832 -0.207629,-0.49792 -0.316243,-0.87395 -0.512384,-1.77395 -0.164555,-0.75507 -0.190029,-1.13743 -0.186457,-2.79859 0.0026,-1.19194 0.04441,-2.09041 0.109987,-2.3613 0.05822,-0.24051 0.141492,-0.61438 0.185053,-0.83083 0.08888,-0.44162 0.282164,-1.08388 0.49349,-1.6398 0.09574,-0.25185 0.193294,-0.37169 0.302591,-0.37169 0.309713,0 1.298231,0.46353 1.352385,0.63416 0.02911,0.0917 -0.02423,0.38993 -0.118522,0.66271 -0.363376,1.05122 -0.433221,1.36557 -0.644565,2.90101 -0.102259,0.74293 -0.04151,1.96382 0.152302,3.06096 0.217242,1.22977 0.325496,1.38212 0.77348,1.08859 0.176499,-0.11565 0.197181,-0.17727 0.139428,-0.41542 -0.434459,-1.7914 -0.392856,-4.28148 0.09742,-5.83077 0.684848,-2.16414 1.502545,-3.537 2.999991,-5.03679 1.352767,-1.35487 2.613187,-2.15788 4.289605,-2.73287 1.38506,-0.47506 1.903664,-0.56362 3.554447,-0.60698 1.354098,-0.0356 1.664542,-0.0164 2.536219,0.15665 0.546291,0.10845 1.032613,0.22628 1.080712,0.26183 0.0481,0.0356 0.223909,0.0939 0.390681,0.12959 0.166775,0.0357 0.363551,0.0974 0.43728,0.13704 0.20212,0.10871 0.722651,0.32231 0.928409,0.38097 0.137779,0.0393 0.207037,-0.003 0.284232,-0.17207 0.05614,-0.12321 0.102068,-0.26061 0.102068,-0.30534 0,-0.1704 -0.596231,-0.45665 -1.749118,-0.83973 -0.660765,-0.21956 -1.487509,-0.39095 -2.405034,-0.49859 l -0.874559,-0.1026 v -0.83083 c 0,-0.81947 0.003,-0.83126 0.218639,-0.86251 0.517234,-0.075 2.774114,0.35316 3.935513,0.74653 0.923483,0.31278 2.330564,1.01536 3.229168,1.61237 0.774845,0.51478 2.017088,1.55636 2.50281,2.09851 0.748715,0.83569 1.713325,2.2084 2.12516,3.02424 0.144089,0.28544 0.31859,0.56596 0.387781,0.62338 0.159398,0.13229 0.675577,0.0377 0.675577,-0.12383 0,-0.2181 -0.972598,-1.89361 -1.542209,-2.6568 -0.162227,-0.21736 -0.382521,-0.51326 -0.489548,-0.65756 -0.107024,-0.1443 -0.588992,-0.656 -1.071036,-1.1371 -1.288439,-1.28593 -2.940889,-2.41568 -4.462137,-3.05071 -0.432908,-0.18071 -0.865814,-0.3616 -0.962014,-0.40199 -1.0712,-0.44969 -3.456128,-0.87619 -4.899501,-0.87619 -0.91526,0 -2.849079,0.21452 -3.172415,0.35192 -0.11049,0.047 -0.279329,0.0854 -0.375198,0.0854 -0.518036,0 -3.062613,1.03691 -4.136049,1.68544 -1.234453,0.7458 -2.936502,2.23311 -3.954338,3.45544 -0.34712,0.41686 -1.185532,1.6484 -1.386784,2.03704 -0.516718,0.99785 -0.747536,1.48925 -0.747536,1.59147 0,0.0639 -0.03324,0.15351 -0.07387,0.19921 -0.164189,0.18467 -0.543538,1.46222 -0.855667,2.88166 -0.240533,1.09386 -0.214458,3.95302 0.04814,5.27791 0.479132,2.41741 1.567328,4.79661 2.986061,6.52863 0.738206,0.90122 2.361706,2.39335 3.265842,3.00159 1.002499,0.6744 2.95679,1.6773 3.26847,1.6773 0.10106,0 0.206195,0.0363 0.233637,0.0807 0.02744,0.0444 0.177345,0.10644 0.333121,0.13786 0.155774,0.0314 0.440648,0.10873 0.63305,0.1718 0.511313,0.1676 1.394,0.33482 2.14267,0.40592 1.065898,0.10121 3.753229,0.0163 4.475427,-0.14137 z m -3.266541,-5.10444 c 0.01553,-0.16244 -0.0042,-0.3274 -0.04373,-0.36658 -0.03958,-0.0392 -0.395132,-0.1116 -0.790115,-0.16092 -0.98189,-0.12261 -1.482056,-0.27722 -2.605169,-0.80528 -0.720649,-0.33883 -1.23062,-0.66553 -1.85052,-1.18551 -0.248177,-0.20817 -0.484307,-0.37718 -0.524735,-0.37558 -0.04043,0.002 -0.164341,0.0786 -0.27536,0.17117 -0.267684,0.22315 -0.178609,0.38214 0.528151,0.94273 0.538522,0.42714 1.67019,1.15652 1.796044,1.15758 0.03523,2.6e-4 0.162441,0.051 0.282692,0.11271 0.587124,0.30121 1.498814,0.5739 2.405036,0.71933 0.979794,0.15725 1.043821,0.14479 1.077703,-0.20965 z m 2.770352,0.065 c 2.376911,-0.58276 4.490275,-2.0305 5.805085,-3.9767 0.647121,-0.95788 0.664403,-1.16671 0.09684,-1.17017 -0.177964,-10e-4 -0.307673,0.12989 -0.679026,0.68564 -0.435592,0.65188 -1.614684,1.9367 -1.777326,1.9367 -0.114466,0 -0.862687,-0.97703 -0.92117,-1.20287 -0.0403,-0.15564 0.04019,-0.28448 0.382476,-0.61219 0.529437,-0.5069 1.006816,-1.19786 0.968245,-1.40145 -0.01953,-0.10308 -0.128534,-0.15891 -0.345728,-0.17709 -0.2798,-0.0234 -0.33918,0.009 -0.503547,0.27497 -0.277966,0.44975 -1.31993,1.39702 -1.929937,1.75454 -0.295251,0.17304 -0.558279,0.31462 -0.58451,0.31462 -0.02622,0 -0.171701,0.0549 -0.323273,0.12194 -0.791522,0.35024 -1.238144,0.42824 -2.461979,0.42993 -1.230662,0.002 -1.589368,-0.0608 -2.492492,-0.43469 -1.567087,-0.64867 -3.032794,-2.09803 -3.567745,-3.52796 -0.392729,-1.04977 -0.464547,-1.49971 -0.431641,-2.70415 0.03133,-1.14664 0.11312,-1.63185 0.384479,-2.28083 0.773608,-1.85015 2.247019,-3.22757 4.095914,-3.82907 1.530255,-0.49785 3.261916,-0.39765 4.766342,0.2758 0.890093,0.39844 2.083641,1.36449 2.594483,2.09995 0.167481,0.24113 0.18901,0.24748 0.495689,0.14627 0.176334,-0.0582 0.320606,-0.14629 0.320606,-0.19576 0,-0.0495 -0.124857,-0.25304 -0.27746,-0.45236 -0.991444,-1.29499 -2.269604,-2.17902 -3.905742,-2.70138 -0.495708,-0.15827 -0.792941,-0.18594 -1.982433,-0.18459 -1.344483,0.002 -1.431491,0.0126 -2.221302,0.28259 -0.452107,0.15456 -0.878086,0.26942 -0.946623,0.25525 -0.160417,-0.0332 -0.714227,-1.01366 -0.719688,-1.27417 -0.0029,-0.13958 0.0676,-0.22494 0.236331,-0.28604 0.132278,-0.0479 0.319214,-0.1224 0.415417,-0.16554 0.370655,-0.16623 0.817486,-0.29073 1.617932,-0.45084 2.265188,-0.45307 4.687001,0.066 6.777826,1.45263 0.712285,0.47239 1.835539,1.6132 2.333681,2.37015 0.43517,0.66126 0.59876,0.78461 0.85717,0.64631 0.341125,-0.18256 0.253495,-0.4322 -0.506777,-1.44371 -0.74997,-0.9978 -1.912726,-2.04754 -2.815257,-2.54162 -0.168352,-0.0922 -0.365128,-0.21029 -0.437279,-0.26249 -0.147852,-0.10699 -1.260944,-0.56695 -1.792846,-0.74087 -1.250453,-0.40885 -2.952261,-0.51577 -4.285335,-0.26922 -1.365927,0.25262 -1.787985,0.38595 -2.796566,0.88344 -1.077013,0.53123 -1.924873,1.15179 -2.807973,2.05518 l -0.660982,0.67617 0.196371,0.20902 c 0.278099,0.29603 0.465627,0.26109 0.794359,-0.14797 0.232643,-0.28949 0.801759,-0.80686 1.5197,-1.3815 0.456729,-0.36557 0.579504,-0.30316 1.035161,0.52615 l 0.318945,0.58048 -0.456411,0.38153 c -0.979263,0.81859 -1.599301,1.54235 -2.119403,2.47394 -0.38001,0.68067 -0.739267,1.78069 -0.830429,2.54274 l -0.05231,0.43728 -0.822134,0.0253 -0.822134,0.0253 0.05281,-0.7687 c 0.02905,-0.42278 0.09939,-0.90644 0.156324,-1.07479 0.05693,-0.16835 0.161316,-0.48319 0.231973,-0.69965 0.07066,-0.21645 0.267621,-0.68531 0.4377,-1.04191 0.318067,-0.66686 0.317998,-0.80287 -5.29e-4,-1.00378 -0.234466,-0.1479 -0.452591,0.11696 -0.856453,1.03995 -0.412711,0.94321 -0.579189,1.55646 -0.759728,2.79859 -0.292698,2.0138 0.172088,4.20417 1.318332,6.21284 0.235135,0.41205 0.780182,1.08951 0.874487,1.08694 0.175493,-0.005 0.407967,-0.22826 0.407967,-0.39216 0,-0.0864 -0.0911,-0.27879 -0.202454,-0.42764 -0.563811,-0.75365 -1.09913,-1.8663 -1.413547,-2.93802 -0.146511,-0.4994 -0.3121,-1.74375 -0.247306,-1.85844 0.02037,-0.0361 0.408609,-0.0656 0.862727,-0.0656 h 0.825669 v 0.26988 c 0,0.74326 0.589746,2.3874 1.173686,3.27208 0.552442,0.83697 1.744131,1.99525 2.324545,2.25939 0.07215,0.0328 0.266417,0.14136 0.431697,0.24117 0.299392,0.18081 0.753348,0.35828 1.667245,0.65183 0.680244,0.21849 2.619634,0.22085 3.410775,0.004 0.696976,-0.19091 0.750581,-0.21194 1.606916,-0.63052 l 0.688631,-0.3366 0.254545,0.30459 c 0.485883,0.5814 0.691642,0.93091 0.634973,1.07859 -0.04567,0.11901 -0.823441,0.54011 -1.742043,0.94319 -0.367474,0.16124 -1.502296,0.42145 -1.846641,0.42341 -0.229184,0.001 -0.443584,0.0679 -0.590327,0.18332 -0.26292,0.20682 -0.289211,0.35966 -0.09523,0.55365 0.16071,0.16071 0.598916,0.12518 1.657638,-0.1344 z m 8.365426,-3.3335 c 0.460682,-0.80446 0.483894,-0.92176 0.196678,-0.99384 -0.319569,-0.0802 -0.455369,0.0227 -0.831122,0.63022 l -0.319596,0.51667 0.179473,0.19677 c 0.283527,0.31087 0.435533,0.24221 0.774567,-0.34982 z m 0.276839,-11.39713 c 0.455409,-0.17476 -1.321107,-2.82751 -2.665463,-3.98015 -0.69261,-0.59385 -1.562922,-1.21746 -1.699072,-1.21746 -0.158781,0 -0.402516,0.38045 -0.342281,0.53427 0.02619,0.0669 0.19322,0.21626 0.371161,0.33191 1.154758,0.75049 2.551083,2.23381 3.300965,3.50661 0.517491,0.87836 0.640215,0.97619 1.03469,0.82482 z"
           id="path10" /><path
           style="fill:#ff0000;fill-opacity:1;stroke-width:0.655918;stroke-linecap:round;stroke-miterlimit:0.1"
           d="m 67.30339,225.80746 c -0.281199,-0.14238 -0.566523,-0.25888 -0.634056,-0.25888 -0.333335,0 0.01079,-0.84585 0.815719,-2.00507 0.434705,-0.62603 1.832382,-2.27874 1.93049,-2.28274 0.03343,-0.001 0.253441,-0.18145 0.488923,-0.40019 0.567021,-0.52673 1.16127,-0.95642 2.064346,-1.49269 0.811241,-0.48174 1.858195,-0.99068 2.037953,-0.99068 0.0624,0 0.150847,-0.0371 0.196543,-0.0824 0.08514,-0.0845 0.154524,-0.10454 1.657289,-0.47906 0.984935,-0.24547 2.251096,-0.43612 2.579947,-0.38847 0.215648,0.0312 0.218638,0.043 0.218638,0.86251 v 0.83083 l -0.830831,0.1008 c -2.149504,0.26078 -3.794609,0.86292 -5.604494,2.05135 -0.719331,0.47234 -2.170351,1.80724 -2.794847,2.57118 -0.312552,0.38234 -0.993598,1.42674 -1.211416,1.85772 -0.103317,0.20443 -0.236244,0.37012 -0.295391,0.3682 -0.05915,-0.002 -0.337614,-0.11999 -0.618813,-0.26237 z"
           id="path11" /></g></g></g></svg>
